<?xml version="1.0" encoding="utf-8"?>
<!-- Generator: Adobe Illustrator 19.0.0, SVG Export Plug-In . SVG Version: 6.00 Build 0)  -->
<svg version="1.1" id="Layer_1" xmlns="http://www.w3.org/2000/svg" xmlns:xlink="http://www.w3.org/1999/xlink" x="0px" y="0px"
	 viewBox="0 0 600 250" style="enable-background:new 0 0 600 250;" xml:space="preserve">
<style type="text/css">
	.st0{fill:none;stroke:#343A3A;stroke-width:8.9012;stroke-linecap:round;stroke-miterlimit:10;}
	.st1{fill:none;stroke:#009999;stroke-width:8.9012;stroke-linecap:round;stroke-miterlimit:10;}
	.st2{fill:#009999;}
	.st3{fill:#343A3A;}
</style>
<g id="XMLID_2_">
	<g id="XMLID_23_">
		<path id="XMLID_31_" class="st0" d="M137.4,96.1l-23.6,29.3c11.7,16.6,11.6,39.5-1.8,56.1c-16.1,20-45.5,23.2-65.5,7.1
			c-20.1-16.1-23.4-45.6-7.3-65.7c13.4-16.6,36.4-21.1,54.2-13.9l23.6-29.3"/>
		<path id="XMLID_30_" class="st1" d="M244.9,40.8l-38.2,47.1c-1.3,1.6-3.6,1.8-5.1,0.5l-17.6-14.7c-1.5-1.3-3.8-1.1-5.1,0.5
			L154,104.9c-1.2,1.5-3.5,1.8-5,0.5l-11.6-9.3"/>
		<line id="XMLID_29_" class="st0" x1="117.1" y1="79.7" x2="102.7" y2="68.2"/>
		<path id="XMLID_28_" class="st1" d="M137.4,96.1l-44.5,55.3c-1.2,1.5-3.4,1.8-4.9,0.6l-14.3-13c-1.9-1.4-4.6-0.7-5.5,1.6
			l-16.2,19.7c-0.9,2.4-4.1,3.1-5.9,1.2l-15.4-14.8"/>
		<polyline id="XMLID_27_" class="st1" points="222.4,42.4 233.9,38.6 250.4,33.3 250.4,49 250.4,60.9 		"/>
		<circle id="XMLID_26_" class="st0" cx="147.7" cy="63.4" r="8.7"/>
		<circle id="XMLID_25_" class="st0" cx="185.2" cy="110.3" r="8.7"/>
		<circle id="XMLID_24_" class="st0" cx="196.8" cy="45.7" r="8.7"/>
	</g>
	<g id="XMLID_51_">
		<path id="XMLID_52_" class="st2" d="M217.5,151.9c-0.1,2.4-1.2,4.4-3.9,4.4c-1.4,0-2.4-0.5-3.6-1.1c-2.3-1-5.3-1.9-9.1-1.9
			c-8.7,0-16.9,8.2-17,20.5c-0.1,10.8,7.8,19,17.3,19c3.7,0.1,7.3-1.1,9.9-2.7c1.3-0.6,1.9-1.3,3.6-1.3c2.3,0,3.6,2.5,3.6,4.7
			c-0.1,4-9.3,7.8-17.9,7.8c-12.9-0.2-25.6-10.1-25.4-27.2c0.2-18,13.6-29,26.6-28.9c4.3,0.1,9,1.1,11.8,2.3
			C215.6,148.3,217.5,149.5,217.5,151.9z"/>
		<path id="XMLID_54_" class="st2" d="M244.8,163.3c10.3,1.5,15,10.3,15,18.8c0,11.1-8.4,19.2-19.6,19.2c-9.8,0-18.4-7.3-18.4-18
			c0-12,7.8-20.2,20.6-20.4C243.3,162.8,244.1,162.8,244.8,163.3z M240.8,170.5c-6.1,0.3-10.2,4.9-10.2,12.6
			c0,6.1,4.8,10.3,9.4,10.3c5.7,0,11-4.5,11-11.7C251,175.8,247.3,170.9,240.8,170.5z"/>
		<path id="XMLID_57_" class="st2" d="M266.5,168.3c-0.1-3.3,1.1-5.2,4.5-5.2c2.7,0,3.7,1.3,4,4l0.2,2.8c1.9-4.4,7-7,12-7
			c9,0,14,5.9,14,15.9c0,3.3-0.1,5-0.1,10.4v7c0,3.2-1.7,4.5-4.8,4.5c-2.3,0-4.2-1.2-4.2-3.9c0-4.6,0.2-10.4,0.2-15.5
			c-0.1-5.5-1.2-10.7-7.4-10.7c-8.4-0.1-9.8,6.2-9.8,13.7l0.1,12.7c0,2.9-2.4,3.8-4.4,3.8c-2.5,0-4.4-0.9-4.4-3.9
			c0-4.9,0.2-9.7,0.2-21.6L266.5,168.3z"/>
		<path id="XMLID_59_" class="st2" d="M333.9,164.8c1.4,0.6,2.5,1.5,2.5,3.2c0,2.3-1.1,3.8-3.5,3.8c-2.3,0-5.2-1.9-9.8-1.9
			c-3.7,0-6.9,1.8-6.9,4.5c0,3,3.6,3.2,7.7,3.8c7.8,1.1,13.7,3.5,13.7,10.9c0,7.6-6,12-15.4,12c-7.1,0-14.4-2.4-14.4-5.3
			c0-2.3,0.9-4.4,3.5-4.4c3,0,6.1,2.3,11.7,2.3c3.6,0,6.5-1.5,6.5-4.4c0-3.1-2.8-3.9-7.8-4.6c-6.5-0.9-13.5-2.6-13.5-9.9
			c0-7.1,7.3-12,14.9-12C327.7,162.9,331.5,163.7,333.9,164.8z"/>
		<path id="XMLID_61_" class="st2" d="M352.9,167.9c-0.1,4.8-0.2,8.4-0.2,14.6c0,5.5,1.5,10.8,7.4,10.8c7.4,0,9.6-5.8,9.7-14.3
			v-11.3c0-3.1,2.2-4.4,4.6-4.4c2.7,0,4.4,1.2,4.4,4.3c0,1.1-0.2,10.6-0.1,18.5c0.1,5.5,0.3,9.5,0.4,11.2c0.1,2.4-1.9,3.6-4.3,3.6
			s-3.6-1.1-4-3.1c-0.2-1.5-0.2-2.7-0.4-4.4c-2.3,4.6-6.3,7.8-12,7.8c-10.2,0-14.6-7.2-14.6-17.2c0-4.4,0.1-11.7,0.1-15.9
			c0-3.3,1.9-4.6,4.9-4.6C351.6,163.3,352.9,164.7,352.9,167.9z"/>
		<path id="XMLID_63_" class="st2" d="M393,142.1c3.2,0,4.5,1.6,4.5,5c-0.2,13-0.4,27.2-0.4,39.5c0,3.6,0.2,7,0.3,10.3
			c-0.1,2.6-1.1,3.8-4.1,4c-3,0.2-4.9-1.4-5-6.2c-0.4-10.4-0.1-34.6,0-48.4C388.4,143.4,390.4,142.1,393,142.1z"/>
		<path id="XMLID_65_" class="st2" d="M401.6,167.5c0-2.3,1.5-3.8,3.8-3.8h4.1l0.2-5.9c0.1-2.7,1.2-5.3,4.8-5.3c2.7,0,3.6,1.5,3.6,4
			c0,1.8-0.2,4.6-0.2,7.1h7c2.3-0.1,3.7,1.2,3.7,3.7c0,2.2-1.1,3.8-3.4,3.8h-7.3v14.2c0,4.9,1,7.7,4.3,7.7c1.9,0,2.4-0.6,3.7-0.6
			c2.1,0,3.2,1.9,3.2,3.7c0,1.9-0.6,3-1.8,3.6c-1.6,0.9-2.9,1.2-6.1,1.2c-7.7,0-12-4.2-12-14.5c0-4.9,0.2-10.3,0.2-15.3h-4.4
			C402.6,171.2,401.6,169.7,401.6,167.5z"/>
		<path id="XMLID_73_" class="st2" d="M433.4,147.4c0.5-3.2,3.2-4.8,5.8-4.8c3.6,0,5.5,2.4,5.5,5.5c0,3.7-2.7,5.3-6.1,5.3
			S433,150.8,433.4,147.4z M438.8,163.1c2.7,0,4.6,1,4.6,4.9c0.1,6.1-0.1,12.3,0,18.4v10.1c0.1,3-1.6,4.4-4.5,4.4
			c-2.5,0-4.4-1.2-4.4-3.8v-29.9C434.7,164.1,436.8,163.1,438.8,163.1z"/>
		<path id="XMLID_76_" class="st2" d="M452.8,168.3c-0.1-3.3,1.1-5.2,4.5-5.2c2.7,0,3.7,1.3,4,4l0.2,2.8c1.9-4.4,7-7,12-7
			c9,0,14,5.9,14,15.9c0,3.3-0.1,5-0.1,10.4v7c0,3.2-1.7,4.5-4.8,4.5c-2.3,0-4.2-1.2-4.2-3.9c0-4.6,0.2-10.4,0.2-15.5
			c-0.1-5.5-1.2-10.7-7.4-10.7c-8.4-0.1-9.8,6.2-9.8,13.7l0.1,12.7c0,2.9-2.4,3.8-4.4,3.8c-2.5,0-4.4-0.9-4.4-3.9
			c0-4.9,0.2-9.7,0.2-21.6L452.8,168.3z"/>
		<path id="XMLID_78_" class="st2" d="M522.4,200v-4.8c-2.3,3.4-6.4,5.7-11.2,5.7c-10.5,0-17.6-8.6-17.6-18.3
			c0-11.2,7.8-19.8,18.4-19.8c4.5,0,8.4,2.3,10.8,5.7l0.1-2.5c0.2-1.7,1.9-2.8,4.1-2.8c2.3,0,4.1,1.5,4.1,3.9
			c0,9.1-0.2,15.6-0.2,25.2l0.2,7.9c0.2,11.1-8.3,19.1-19.6,19.1c-4.4,0-8.2-0.6-11.4-2.3c-2-1.1-3.1-2.2-3.1-4.3
			c0-2.2,1.7-4.4,3.9-4.4c1.1,0,2.3,0.6,3.6,1.2c1.9,0.6,4.2,1.3,6.9,1.3C517.4,211,522.4,206.6,522.4,200z M512.4,193.1
			c5.3,0,10.3-3.8,10.3-11.1c0-7.8-4.7-11.3-9.9-11.4c-5.9,0-10.3,4.8-10.3,11.9C502.4,188.9,506.9,193.1,512.4,193.1z"/>
	</g>
	<g id="XMLID_1_">
		<path id="XMLID_33_" class="st3" d="M276.2,75.1c1.2-1.5,2.4-2.5,4.2-2.5c2.3,0,4.7,2.2,4.7,4.2c0,1.4-0.4,2.3-1.5,3.6
			c-4,4.7-10.5,11.4-13.7,14.8c-0.9,1-2,2.3-2.8,3.2c2.2,2.5,5.6,6.7,11.6,13.8c1.9,2.3,3.9,4.5,6.8,7.8c1.3,1.3,1.9,2.5,1.9,3.9
			c0,2.6-2.5,4.5-4.9,4.5c-1.6,0-2.7-0.6-3.8-2.1c-0.9-1.1-1.5-1.9-2.4-3.1c-5.1-6.6-9.9-12.9-15-19.4c-1.9,2.2-4.4,4.5-6.1,6.4
			l0.1,14.2c0,2.6-1.9,3.8-4.5,3.9c-2.7,0-4.6-1.4-4.6-4c0-1.7,0.1-3.5,0.1-6.1c0-15.2,0.2-25.6,0.2-41.2c0-3.1,2-4.4,4.6-4.4
			c2.8,0,4.4,1.4,4.4,4c0,7.8-0.1,15.6-0.1,22.8C261.4,92.4,269.7,82.9,276.2,75.1z"/>
		<path id="XMLID_35_" class="st3" d="M301.4,95.2c-0.1,4.8-0.2,8.4-0.2,14.6c0,5.5,1.5,10.8,7.4,10.8c7.4,0,9.6-5.8,9.7-14.3V95.1
			c0-3.1,2.2-4.4,4.6-4.4c2.7,0,4.4,1.2,4.4,4.3c0,1.1-0.2,10.6-0.1,18.5c0.1,5.5,0.3,9.5,0.4,11.2c0.1,2.4-1.9,3.6-4.3,3.6
			s-3.6-1.1-4-3.1c-0.2-1.5-0.2-2.7-0.4-4.4c-2.3,4.6-6.3,7.8-12,7.8c-10.2,0-14.6-7.2-14.6-17.2c0-4.4,0.1-11.7,0.1-15.9
			c0-3.3,1.9-4.6,4.9-4.6C300.1,90.7,301.4,92.1,301.4,95.2z"/>
		<path id="XMLID_37_" class="st3" d="M366.9,121.3c0.7,0.9,1.1,1.6,1.1,2.6c0,1.9-2.1,4.3-4.6,4.3c-1.5,0-2.6-1-3.8-2.5l-11-13.3
			c-0.8,0.7-2.7,2.6-3.5,3.3l-0.1,7.9c0,2.8-1.1,4.6-4.3,4.6c-3.1,0-4.4-1.7-4.4-4.8l0.2-8.9c0-12.1-0.1-23.1-0.1-35.5
			c0-1.5,0-4.4-0.1-6.1c0-2.8,2.2-4.1,4.5-4.1c2.9,0,4.4,1.4,4.4,4.4c0,10.8-0.2,22.2-0.2,33l13.6-13.9c1.3-1.4,2.5-2.2,3.9-2.2
			c2.1,0,4.4,2.3,4.4,4.3c0,1.1-0.6,2-1.6,3.1c-3.1,3.1-7.9,7.5-10.8,10.2L366.9,121.3z"/>
		<path id="XMLID_39_" class="st3" d="M381.8,95.2c-0.1,4.8-0.2,8.4-0.2,14.6c0,5.5,1.5,10.8,7.4,10.8c7.4,0,9.6-5.8,9.7-14.3V95.1
			c0-3.1,2.2-4.4,4.6-4.4c2.7,0,4.4,1.2,4.4,4.3c0,1.1-0.2,10.6-0.1,18.5c0.1,5.5,0.3,9.5,0.4,11.2c0.1,2.4-1.9,3.6-4.3,3.6
			s-3.6-1.1-4-3.1c-0.2-1.5-0.2-2.7-0.4-4.4c-2.3,4.6-6.3,7.8-12,7.8c-10.2,0-14.6-7.2-14.6-17.2c0-4.4,0.1-11.7,0.1-15.9
			c0-3.3,1.9-4.6,4.9-4.6C380.5,90.7,381.8,92.1,381.8,95.2z"/>
		<path id="XMLID_41_" class="st3" d="M441.3,94c0.8-2,1.8-3.5,4-3.5c2.3,0,4.9,1.5,4.9,3.6c0,1.2-0.3,2.3-0.9,3.4
			c-5.3,12-12.3,27.6-18.3,39.6c-3.2,5.7-7.1,8.8-12,8.8c-3.6,0-6.3-1.1-6.3-4.4c0-2.7,1.4-4.1,4.3-4.1c3.4,0,4.6-1.1,6.8-4.9
			c1.1-1.9,2.2-4.1,3.6-7l-2.5-5.3l-10.1-21.9c-0.9-1.9-1.4-3.1-1.4-4.4c0-2.3,2.6-3.8,4.7-3.8c1.9,0,2.7,0.6,3.5,2.2
			c6.1,14.8,8,19.6,10.3,24.9C433.5,114,436.4,106.7,441.3,94z"/>
		<path id="XMLID_43_" class="st3" d="M471.7,120.5c3,0,5.8-1,7.8-2.2c1-0.6,1.9-1.1,3.2-1.1c1.9,0,3.7,2,3.7,4.2
			c0,1.5-1,2.7-2.4,3.7c-3,1.9-6.8,3.2-13,3.2c-10,0-18-8-18.1-17.8c0-11.3,8.1-20.5,18.6-20.5c9.5,0,16.3,7.4,16.3,14.9
			c0,4.2-0.6,6.3-6.3,6.4c-4.5,0.2-10,0.1-19.6,0.2C462.1,116.5,466.2,120.5,471.7,120.5z M461.9,106c4.2,0,13.1-0.1,16.5-0.3
			c0.6-0.1,1-0.3,1-0.7c0-4.4-3.7-7.5-7.8-7.5C466.2,97.4,462.4,101.7,461.9,106z"/>
		<path id="XMLID_46_" class="st3" d="M490.6,94.2c0.1-2.4,2.6-3.8,4.8-3.8c2.4,0,3.4,1.5,4.4,4.1c2.8,7,6.5,16.4,9.3,23.3
			c3.1-7.1,7.4-18,9.5-23.8c0.8-2.1,2.1-3.5,4.1-3.5c2.2,0,4.7,1.4,4.8,3.5c0,1.5-0.3,2.5-0.9,3.8c-2,4.3-7.1,16-11.9,26.2
			c-1.5,3-3,4.2-5.7,4.2c-2.8,0-4.3-1.5-5.8-4.9c-4.7-10.7-7.6-17.2-11-24.7C491.2,96.7,490.5,95.6,490.6,94.2z"/>
		<path id="XMLID_48_" class="st3" d="M567.6,114.1c0,3.5,0.1,6.9,0.3,10.3c0,2.9-2.3,3.7-4.6,3.7c-2.7,0-3.4-2-4-6.2
			c-2.4,4.2-6.6,6.5-11.9,6.5c-10.8,0-17.5-8.1-17.5-18c0-11.8,8.1-20,18.6-20c4.5,0,8.6,2,11,5.7c0.2-1,0.3-2.3,0.5-3
			c0.6-1.5,1.7-2.5,3.6-2.5c3.2,0,4.2,1.9,4.2,4.9l-0.1,6.2L567.6,114.1z M548.6,120.8c6,0,10.6-4.5,10.6-11.4
			c0-7.4-4.9-11.3-10.2-11.3c-5.8,0-10.1,4.9-10.1,12.1C538.9,116.3,543.2,120.8,548.6,120.8z"/>
	</g>
</g>
</svg>
